<?xml version="1.0" encoding="utf-8"?>
<!-- Generator: Adobe Illustrator 25.0.0, SVG Export Plug-In . SVG Version: 6.00 Build 0)  -->
<svg version="1.1" xmlns="http://www.w3.org/2000/svg" xmlns:xlink="http://www.w3.org/1999/xlink" x="0px" y="0px"
	 viewBox="0 0 32 32" style="enable-background:new 0 0 32 32;" xml:space="preserve">
<style type="text/css">
	.st0{display:none;}
	.st1{display:inline;fill:#FFFFFF;}
	.st2{display:inline;fill:#3F3F3F;}
</style>
<g id="BG" class="st0">
	<g id="L2">
		<rect x="-3.2" y="-3.7" class="st1" width="39.2" height="39.2"/>
	</g>
	<g id="L3">
		<rect x="-3.2" y="-3.7" class="st2" width="39.2" height="39.2"/>
	</g>
</g>
<g id="图层_2">
	<path d="M7.1,26.2c-0.3,0-0.7-0.1-0.9-0.4c-0.5-0.5-0.5-1.3,0-1.8L24,6.2c0.5-0.5,1.3-0.5,1.8,0c0.5,0.5,0.5,1.3,0,1.8L8,25.8
		C7.7,26.1,7.4,26.2,7.1,26.2z"/>
	<path d="M9,13.5c-2.5,0-4.5-2-4.5-4.5s2-4.5,4.5-4.5s4.5,2,4.5,4.5S11.4,13.5,9,13.5z M9,7.1C7.9,7.1,7.1,7.9,7.1,9
		s0.9,1.9,1.9,1.9S10.9,10,10.9,9S10,7.1,9,7.1z"/>
	<path d="M23,27.5c-2.5,0-4.5-2-4.5-4.5s2-4.5,4.5-4.5s4.5,2,4.5,4.5S25.5,27.5,23,27.5z M23,21.1c-1.1,0-1.9,0.9-1.9,1.9
		c0,1.1,0.9,1.9,1.9,1.9c1.1,0,1.9-0.9,1.9-1.9C24.9,22,24.1,21.1,23,21.1z"/>
</g>
</svg>
