<?xml version="1.0" encoding="utf-8"?>
<!-- Generator: Adobe Illustrator 25.0.0, SVG Export Plug-In . SVG Version: 6.00 Build 0)  -->
<svg version="1.1" id="图层_1" xmlns="http://www.w3.org/2000/svg" xmlns:xlink="http://www.w3.org/1999/xlink" x="0px" y="0px"
	 viewBox="0 0 32 32" style="enable-background:new 0 0 32 32;" xml:space="preserve">
<style type="text/css">
	.st0{fill:#FFFFFF;}
	.st1{display:none;}
	.st2{display:inline;fill:#3F3F3F;}
</style>
<g id="BG">
	<g id="L2">
		<rect x="-3.2" y="-3.7" class="st0" width="39.2" height="39.2"/>
	</g>
	<g id="L3" class="st1">
		<rect x="-3.2" y="-3.7" class="st2" width="39.2" height="39.2"/>
	</g>
</g>
<g id="图层_2_1_">
	<path d="M8.4,24.7c-0.3,0-0.6-0.1-0.8-0.3c-0.4-0.4-0.4-1.1,0-1.5L22.8,7.6c0.4-0.4,1.1-0.4,1.5,0s0.4,1.1,0,1.5L9.2,24.4
		C8.9,24.6,8.6,24.7,8.4,24.7z"/>
	<path d="M10,13.9c-2.1,0-3.8-1.7-3.8-3.8S7.9,6.2,10,6.2s3.8,1.7,3.8,3.8S12.1,13.9,10,13.9z M10,8.4c-0.9,0-1.6,0.7-1.6,1.6
		c0,0.9,0.8,1.6,1.6,1.6c0.9,0,1.6-0.8,1.6-1.6C11.6,9.2,10.9,8.4,10,8.4z"/>
	<path d="M22,25.8c-2.1,0-3.8-1.7-3.8-3.8s1.7-3.8,3.8-3.8s3.8,1.7,3.8,3.8S24.1,25.8,22,25.8z M22,20.4c-0.9,0-1.6,0.8-1.6,1.6
		c0,0.9,0.8,1.6,1.6,1.6c0.9,0,1.6-0.8,1.6-1.6C23.6,21.1,22.9,20.4,22,20.4z"/>
</g>
</svg>
