<?xml version="1.0" encoding="utf-8"?>
<!-- Generator: Adobe Illustrator 25.0.0, SVG Export Plug-In . SVG Version: 6.00 Build 0)  -->
<svg version="1.1" id="图层_1" xmlns="http://www.w3.org/2000/svg" xmlns:xlink="http://www.w3.org/1999/xlink" x="0px" y="0px"
	 viewBox="0 0 512 309" style="enable-background:new 0 0 512 309;" xml:space="preserve">
<style type="text/css">
	.st0{fill:#FFFFFF;}
</style>
<g id="BG">
	<g id="L2">
		<rect x="-27" y="-17" class="st0" width="557" height="342"/>
	</g>
</g>
<g>
	<path d="M134.7,88.2h86.6V95h-78.7v51.8h74v6.9h-74v56.9h79.6v6.9h-87.5V88.2z M229.1,88.2h9.2l40.8,56.9l41.7-56.9l56.7-72.3
		L284.3,151l48,66.5h-9.6L279.1,157l-43.9,60.5h-9.4l48.4-66.5L229.1,88.2z M335.8,95v-6.9h98.7V95H389v122.5h-7.9V95H335.8z
		 M26.3,88.2h9.9L173.1,293l-56.6-75.5L34.6,97.9l-0.4,119.6h-7.9V88.2z M433.7,208.6c-1.6,0-2.8-1.3-2.8-2.9s1.2-2.9,2.8-2.9
		c1.6,0,2.8,1.3,2.8,2.9S435.4,208.6,433.7,208.6z M441.5,201h4.2c0.1,2.3,1.7,3.8,4.2,3.8c2.8,0,4.3-1.7,4.3-4.8v-19.7h4.3v19.7
		c0,5.6-3.2,8.8-8.6,8.8C445,208.9,441.5,205.8,441.5,201z M464.3,200.7h4.3c0.4,2.6,3,4.3,6.7,4.3c3.5,0,6-1.8,6-4.3
		c0-2.1-1.6-3.4-5.3-4.3l-3.6-0.9c-5-1.2-7.3-3.6-7.3-7.7c0-5,4.1-8.3,10.1-8.3c5.7,0,9.8,3.3,10,8H481c-0.4-2.6-2.6-4.2-5.9-4.2
		c-3.4,0-5.7,1.6-5.7,4.2c0,2,1.5,3.1,5.1,4l3.1,0.8c5.7,1.3,8.1,3.7,8.1,7.9c0,5.3-4.1,8.7-10.7,8.7
		C468.8,208.9,464.6,205.7,464.3,200.7z"/>
</g>
</svg>
